<?xml version="1.0" encoding="UTF-8" standalone="no"?>
<svg
   xmlns:dc="http://purl.org/dc/elements/1.1/"
   xmlns:cc="http://creativecommons.org/ns#"
   xmlns:rdf="http://www.w3.org/1999/02/22-rdf-syntax-ns#"
   xmlns:svg="http://www.w3.org/2000/svg"
   xmlns="http://www.w3.org/2000/svg"
   id="svg8"
   version="1.1"
   viewBox="0 0 41.010417 35.493356"
   height="134.14812"
   width="155">
  <title
     id="title6258">MRT Jakarta logo vertical version</title>
  <defs
     id="defs2">
    <clipPath
       clipPathUnits="userSpaceOnUse"
       id="clipPath5265-3">
      <path
         d="M 0,595.276 H 280.63 V 0 H 0 Z"
         id="path5263-4" />
    </clipPath>
    <clipPath
       clipPathUnits="userSpaceOnUse"
       id="clipPath5253-3">
      <path
         d="m 154.492,540.517 h 41.314 v 26.13 h -41.314 z"
         id="path5251-2" />
    </clipPath>
  </defs>
  <metadata
     id="metadata5">
    <rdf:RDF>
      <cc:Work
         rdf:about="">
        <dc:format>image/svg+xml</dc:format>
        <dc:type
           rdf:resource="http://purl.org/dc/dcmitype/StillImage" />
        <dc:title>MRT Jakarta logo vertical version</dc:title>
      </cc:Work>
    </rdf:RDF>
  </metadata>
  <g
     transform="translate(1.3361384,-56.223889)"
     id="layer1">
    <g
       transform="matrix(2.7255945,0,0,2.7255945,1.1642241,-157.12535)"
       id="g6256">
      <g
         id="g5247"
         transform="matrix(0.35277777,0,0,-0.35277777,-55.182973,278.41228)">
        <g
           id="g5249"
           clip-path="url(#clipPath5253-3)">
          <g
             id="g5255"
             transform="translate(179.2227,550.4899)">
            <path
               d="m 0,0 h 5.055 l 2.917,10.577 c 0.913,3.305 -1.42,5.56 -4.628,5.56 -4.413,0 -6.864,-2.566 -7.874,-6.221 -0.077,-0.292 -4.083,-14.679 -4.083,-14.679 -0.252,-0.719 -0.525,-1.225 -1.516,-1.225 -0.661,0 -1.245,0.544 -1.051,1.205 l 4.22,15.36 c 0.836,3.188 -1.75,5.56 -4.628,5.56 -4.627,0 -6.785,-2.255 -7.699,-5.56 l -5.424,-19.695 h 4.821 l 5.541,20.064 c 0.175,0.68 0.622,1.225 1.556,1.225 0.661,0 1.069,-0.545 0.875,-1.225 l -4.044,-14.679 c -0.953,-3.441 1.244,-6.163 4.511,-6.241 4.18,-0.077 6.61,1.225 7.951,6.241 l 4.083,14.679 c 0.175,0.68 0.681,1.225 1.556,1.225 0.661,0 1.069,-0.545 0.875,-1.225 z"
               style="fill:#25468b;fill-opacity:1;fill-rule:nonzero;stroke:none"
               id="path5257" />
          </g>
        </g>
      </g>
      <g
         id="g5259"
         transform="matrix(0.35277777,0,0,-0.35277777,-55.182973,278.41228)">
        <g
           id="g5261"
           clip-path="url(#clipPath5265-3)">
          <g
             id="g5267"
             transform="translate(195.7871,566.0436)">
            <path
               d="m 0,0 h -4.802 l -5.541,-20.142 c -0.233,-0.661 -0.447,-1.069 -1.516,-1.069 -0.622,0 -1.07,0.505 -0.914,1.069 l 0.835,3.053 h -5.054 c 0,0 -0.583,-2.159 -0.603,-2.198 -1.128,-4.082 1.07,-6.24 4.511,-6.24 4.86,0 6.824,2.799 7.776,6.24 C -5.308,-19.248 0,0 0,0"
               style="fill:#43b64b;fill-opacity:1;fill-rule:nonzero;stroke:none"
               id="path5269" />
          </g>
          <g
             id="g5271"
             transform="translate(163.2305,536.5236)">
            <path
               d="M 0,0 C -0.493,0 -1.064,-0.286 -1.367,-0.683 -1.414,-0.207 -1.796,0 -2.257,0 -2.813,0 -3.305,-0.223 -3.671,-0.651 h -0.016 l 0.175,0.54 h -1.032 l -1.112,-3.893 h 1.064 l 0.604,2.082 c 0.142,0.476 0.509,1.08 1.08,1.08 0.27,0 0.461,-0.191 0.429,-0.413 0,-0.08 -0.016,-0.175 -0.047,-0.287 l -0.7,-2.462 h 1.08 l 0.588,2.082 c 0.144,0.476 0.525,1.08 1.097,1.08 0.27,0 0.444,-0.191 0.429,-0.413 0,-0.08 -0.031,-0.175 -0.048,-0.287 l -0.715,-2.462 h 1.08 l 0.652,2.288 c 0.064,0.238 0.159,0.492 0.174,0.731 C 1.159,-0.318 0.619,0 0,0"
               style="fill:#25468b;fill-opacity:1;fill-rule:nonzero;stroke:none"
               id="path5273" />
          </g>
          <g
             id="g5275"
             transform="translate(167.7266,536.4918)">
            <path
               d="m 0,0 c -0.096,0.016 -0.207,0.032 -0.317,0.032 -0.573,0 -1.129,-0.286 -1.399,-0.826 l -0.015,0.015 0.206,0.699 h -1.017 l -1.112,-3.892 h 1.064 l 0.492,1.732 c 0.207,0.651 0.54,1.271 1.368,1.271 0.142,0 0.301,-0.032 0.444,-0.064 z"
               style="fill:#25468b;fill-opacity:1;fill-rule:nonzero;stroke:none"
               id="path5277" />
          </g>
          <g
             id="g5279"
             transform="translate(169.4903,537.6036)">
            <path
               d="m 0,0 h -1.064 l -1.145,-3.988 c -0.031,-0.143 -0.063,-0.27 -0.079,-0.365 -0.064,-0.636 0.461,-0.794 0.953,-0.794 0.223,0 0.461,0.015 0.668,0.031 l 0.254,0.826 c -0.127,-0.016 -0.254,-0.016 -0.382,-0.016 -0.158,0 -0.365,0 -0.35,0.286 0,0.032 0.033,0.096 0.048,0.175 l 0.557,1.939 h 0.746 l 0.223,0.715 h -0.763 z"
               style="fill:#25468b;fill-opacity:1;fill-rule:nonzero;stroke:none"
               id="path5281" />
          </g>
          <g
             id="g5283"
             transform="translate(173.6055,537.9059)">
            <path
               d="m 0,0 h -0.477 l -0.222,-0.763 h 0.476 z"
               style="fill:#25468b;fill-opacity:1;fill-rule:nonzero;stroke:none"
               id="path5285" />
          </g>
          <g
             id="g5287"
             transform="translate(171.3809,531.8683)">
            <path
               d="m 0,0 c -0.079,-0.207 -0.207,-0.381 -0.492,-0.381 -0.096,0 -0.175,0.015 -0.271,0.031 l -0.111,-0.397 c 0.111,-0.016 0.207,-0.032 0.317,-0.032 0.605,0 0.859,0.255 1.018,0.763 l 1.318,4.56 H 1.303 Z"
               style="fill:#25468b;fill-opacity:1;fill-rule:nonzero;stroke:none"
               id="path5289" />
          </g>
          <g
             id="g5291"
             transform="translate(175.7979,533.9493)">
            <path
               d="m 0,0 c -0.19,-0.683 -0.715,-1.144 -1.478,-1.144 -0.445,0 -0.842,0.207 -0.81,0.699 0.063,0.811 1.017,0.842 1.604,0.89 0.239,0.016 0.715,0.032 0.874,0.222 L 0.206,0.652 Z m 0.921,1.7 c 0.064,0.699 -0.746,0.874 -1.271,0.874 -0.841,0 -1.541,-0.397 -1.748,-1.271 h 0.477 c 0.143,0.652 0.684,0.874 1.287,0.874 0.365,0 0.811,-0.111 0.778,-0.556 C 0.413,1.097 0.238,0.922 -0.079,0.858 -0.382,0.779 -0.826,0.811 -1.319,0.747 -2.018,0.62 -2.701,0.35 -2.765,-0.46 c -0.048,-0.763 0.461,-1.081 1.161,-1.081 0.54,0 1.095,0.27 1.397,0.715 l 0.017,-0.016 c -0.017,-0.063 -0.017,-0.143 -0.033,-0.206 -0.015,-0.255 0.127,-0.43 0.382,-0.43 0.127,0 0.285,0.017 0.397,0.048 l 0.095,0.366 c -0.063,0 -0.127,-0.016 -0.19,-0.016 -0.111,0 -0.238,0.032 -0.238,0.159 0.031,0.238 0.127,0.444 0.365,1.318 0.095,0.35 0.317,0.938 0.333,1.303"
               style="fill:#25468b;fill-opacity:1;fill-rule:nonzero;stroke:none"
               id="path5293" />
          </g>
          <g
             id="g5295"
             transform="translate(180.961,536.4122)">
            <path
               d="m 0,0 h -0.619 l -2.431,-1.907 -0.016,0.016 0.985,3.385 h -0.477 l -1.556,-5.387 h 0.476 l 0.413,1.414 0.874,0.684 0.873,-2.098 h 0.525 l -1.001,2.384 z"
               style="fill:#25468b;fill-opacity:1;fill-rule:nonzero;stroke:none"
               id="path5297" />
          </g>
          <g
             id="g5299"
             transform="translate(183.1856,533.9493)">
            <path
               d="m 0,0 c -0.206,-0.683 -0.715,-1.144 -1.478,-1.144 -0.444,0 -0.841,0.207 -0.81,0.699 0.063,0.811 1.017,0.842 1.605,0.89 0.239,0.016 0.715,0.032 0.873,0.222 L 0.207,0.652 Z m 0.922,1.7 c 0.063,0.699 -0.747,0.874 -1.272,0.874 -0.841,0 -1.541,-0.397 -1.747,-1.271 h 0.477 c 0.142,0.652 0.683,0.874 1.287,0.874 0.365,0 0.81,-0.095 0.778,-0.556 C 0.397,1.097 0.238,0.922 -0.079,0.858 -0.381,0.779 -0.826,0.811 -1.318,0.747 -2.018,0.62 -2.701,0.35 -2.765,-0.46 c -0.063,-0.763 0.461,-1.081 1.161,-1.081 0.54,0 1.096,0.27 1.398,0.715 l 0.016,-0.016 c -0.016,-0.063 -0.016,-0.143 -0.033,-0.206 -0.015,-0.255 0.128,-0.43 0.382,-0.43 0.127,0 0.286,0.017 0.398,0.048 l 0.094,0.366 c -0.063,0 -0.127,-0.016 -0.19,-0.016 -0.111,0 -0.238,0.032 -0.238,0.159 0.015,0.238 0.127,0.444 0.365,1.318 0.096,0.35 0.318,0.938 0.334,1.303"
               style="fill:#25468b;fill-opacity:1;fill-rule:nonzero;stroke:none"
               id="path5301" />
          </g>
          <g
             id="g5303"
             transform="translate(187.2852,536.4601)">
            <path
               d="m 0,0 h -0.255 c -0.682,0.016 -1.128,-0.397 -1.477,-0.954 h -0.016 l 0.27,0.906 H -1.907 L -3.051,-3.94 h 0.477 l 0.588,2.033 c 0.222,0.731 0.73,1.414 1.573,1.43 h 0.269 z"
               style="fill:#25468b;fill-opacity:1;fill-rule:nonzero;stroke:none"
               id="path5305" />
          </g>
          <g
             id="g5307"
             transform="translate(187.2373,533.1393)">
            <path
               d="M 0,0 C 0,0.127 0.032,0.19 0.079,0.381 L 0.811,2.876 H 1.589 L 1.7,3.273 H 0.922 L 1.255,4.449 H 0.794 L 0.445,3.273 0.334,2.876 -0.397,0.286 c -0.064,-0.159 -0.08,-0.318 -0.095,-0.397 -0.032,-0.461 0.317,-0.556 0.682,-0.556 0.16,0 0.319,0.016 0.477,0.031 l 0.111,0.413 C 0.588,-0.254 0.413,-0.27 0.223,-0.27 0.048,-0.27 -0.016,-0.127 0,0"
               style="fill:#25468b;fill-opacity:1;fill-rule:nonzero;stroke:none"
               id="path5309" />
          </g>
          <g
             id="g5311"
             transform="translate(191.3682,533.9493)">
            <path
               d="m 0,0 c -0.206,-0.683 -0.715,-1.144 -1.478,-1.144 -0.46,0 -0.858,0.207 -0.81,0.699 0.063,0.811 1.017,0.842 1.604,0.89 0.24,0.016 0.7,0.032 0.874,0.222 V 0.652 Z m 0.223,-0.921 c 0.015,0.238 0.111,0.444 0.349,1.318 0.112,0.35 0.318,0.938 0.35,1.303 0.048,0.699 -0.763,0.874 -1.287,0.874 -0.826,0 -1.541,-0.397 -1.733,-1.271 h 0.478 c 0.142,0.652 0.683,0.874 1.286,0.874 0.35,0 0.811,-0.095 0.779,-0.556 C 0.397,1.097 0.223,0.922 -0.096,0.858 -0.397,0.779 -0.826,0.811 -1.335,0.747 -2.033,0.62 -2.701,0.35 -2.765,-0.46 c -0.063,-0.763 0.446,-1.081 1.161,-1.081 0.54,0 1.095,0.27 1.398,0.715 l 0.016,-0.016 c -0.016,-0.063 -0.033,-0.143 -0.033,-0.206 -0.015,-0.255 0.112,-0.43 0.382,-0.43 0.127,0 0.286,0.017 0.381,0.048 l 0.111,0.366 c -0.079,0 -0.127,-0.016 -0.19,-0.016 -0.111,0 -0.254,0.032 -0.238,0.159"
               style="fill:#25468b;fill-opacity:1;fill-rule:nonzero;stroke:none"
               id="path5313" />
          </g>
        </g>
      </g>
    </g>
  </g>
</svg>
